<?xml version="1.0" encoding="UTF-8" standalone="no"?>
<!DOCTYPE svg PUBLIC "-//W3C//DTD SVG 1.1//EN" "http://www.w3.org/Graphics/SVG/1.1/DTD/svg11.dtd">
<svg width="100%" height="100%" viewBox="0 0 1920 900" version="1.1" xmlns="http://www.w3.org/2000/svg" xmlns:xlink="http://www.w3.org/1999/xlink" xml:space="preserve" xmlns:serif="http://www.serif.com/" style="fill-rule:evenodd;clip-rule:evenodd;stroke-linejoin:round;stroke-miterlimit:2;">
    <g transform="matrix(3.03799,0,0,3.00171,-1828.16,-1108.4)">
        <g transform="matrix(149.33,0,0,187.631,945.553,540)">
            <path d="M0.492,0L0.492,-0.517L0.407,-0.517L0.407,-0.225C0.407,-0.202 0.404,-0.18 0.398,-0.161C0.391,-0.141 0.382,-0.124 0.369,-0.109C0.356,-0.094 0.341,-0.083 0.322,-0.075C0.303,-0.067 0.28,-0.063 0.254,-0.063C0.221,-0.063 0.196,-0.072 0.177,-0.091C0.158,-0.11 0.149,-0.135 0.149,-0.167L0.149,-0.517L0.064,-0.517L0.064,-0.177C0.064,-0.149 0.067,-0.124 0.073,-0.101C0.078,-0.078 0.088,-0.058 0.102,-0.041C0.116,-0.024 0.134,-0.012 0.157,-0.003C0.18,0.007 0.208,0.011 0.242,0.011C0.28,0.011 0.313,0.003 0.341,-0.012C0.369,-0.027 0.392,-0.05 0.41,-0.082L0.412,-0.082L0.412,0L0.492,0Z" style="fill-rule:nonzero;"/>
        </g>
        <g transform="matrix(149.33,0,0,187.631,1028.58,540)">
            <path d="M0.522,-0.002C0.507,0.007 0.487,0.011 0.461,0.011C0.439,0.011 0.422,0.005 0.409,-0.008C0.396,-0.02 0.389,-0.04 0.389,-0.068C0.366,-0.04 0.338,-0.02 0.308,-0.008C0.277,0.005 0.243,0.011 0.207,0.011C0.184,0.011 0.162,0.008 0.141,0.003C0.12,-0.002 0.101,-0.011 0.086,-0.022C0.071,-0.033 0.058,-0.048 0.05,-0.067C0.041,-0.085 0.036,-0.107 0.036,-0.133C0.036,-0.162 0.041,-0.186 0.051,-0.205C0.061,-0.224 0.074,-0.239 0.091,-0.251C0.107,-0.262 0.126,-0.271 0.147,-0.277C0.167,-0.283 0.189,-0.288 0.211,-0.292C0.234,-0.297 0.257,-0.3 0.278,-0.303C0.299,-0.305 0.317,-0.308 0.333,-0.313C0.349,-0.317 0.362,-0.323 0.371,-0.332C0.38,-0.34 0.385,-0.352 0.385,-0.368C0.385,-0.387 0.382,-0.402 0.375,-0.413C0.368,-0.424 0.359,-0.433 0.348,-0.439C0.337,-0.445 0.324,-0.449 0.311,-0.451C0.297,-0.453 0.283,-0.454 0.27,-0.454C0.234,-0.454 0.204,-0.447 0.18,-0.434C0.156,-0.42 0.143,-0.394 0.141,-0.356L0.056,-0.356C0.057,-0.388 0.064,-0.415 0.076,-0.437C0.088,-0.459 0.104,-0.477 0.124,-0.491C0.144,-0.504 0.167,-0.514 0.193,-0.52C0.218,-0.526 0.246,-0.529 0.275,-0.529C0.298,-0.529 0.322,-0.527 0.345,-0.524C0.368,-0.521 0.388,-0.514 0.407,-0.504C0.426,-0.493 0.441,-0.479 0.452,-0.46C0.463,-0.441 0.469,-0.417 0.469,-0.387L0.469,-0.121C0.469,-0.101 0.47,-0.086 0.473,-0.077C0.475,-0.068 0.483,-0.063 0.496,-0.063C0.503,-0.063 0.512,-0.065 0.522,-0.068L0.522,-0.002ZM0.384,-0.267C0.373,-0.259 0.359,-0.253 0.342,-0.25C0.325,-0.246 0.307,-0.243 0.288,-0.241C0.269,-0.238 0.249,-0.236 0.23,-0.233C0.211,-0.23 0.193,-0.225 0.178,-0.218C0.163,-0.211 0.15,-0.202 0.141,-0.19C0.131,-0.177 0.126,-0.16 0.126,-0.139C0.126,-0.125 0.129,-0.113 0.135,-0.104C0.14,-0.094 0.148,-0.086 0.157,-0.08C0.166,-0.074 0.176,-0.07 0.188,-0.067C0.2,-0.064 0.213,-0.063 0.226,-0.063C0.254,-0.063 0.278,-0.067 0.298,-0.075C0.318,-0.082 0.334,-0.092 0.347,-0.104C0.36,-0.115 0.369,-0.128 0.375,-0.142C0.381,-0.155 0.384,-0.168 0.384,-0.18L0.384,-0.267Z" style="fill-rule:nonzero;"/>
        </g>
        <g transform="matrix(149.33,0,0,187.631,1108.77,540)">
            <path d="M0.182,-0.517L0.182,-0.672L0.097,-0.672L0.097,-0.517L0.009,-0.517L0.009,-0.442L0.097,-0.442L0.097,-0.113C0.097,-0.089 0.099,-0.07 0.104,-0.055C0.109,-0.04 0.116,-0.029 0.126,-0.021C0.135,-0.013 0.148,-0.008 0.164,-0.005C0.179,-0.002 0.198,0 0.22,0L0.285,0L0.285,-0.075L0.246,-0.075C0.233,-0.075 0.222,-0.076 0.214,-0.077C0.205,-0.078 0.199,-0.08 0.194,-0.083C0.189,-0.086 0.186,-0.091 0.185,-0.097C0.183,-0.103 0.182,-0.111 0.182,-0.121L0.182,-0.442L0.285,-0.442L0.285,-0.517L0.182,-0.517Z" style="fill-rule:nonzero;"/>
        </g>
        <g transform="matrix(149.33,0,0,187.631,1155.81,540)">
            <path d="M0.522,-0.002C0.507,0.007 0.487,0.011 0.461,0.011C0.439,0.011 0.422,0.005 0.409,-0.008C0.396,-0.02 0.389,-0.04 0.389,-0.068C0.366,-0.04 0.338,-0.02 0.308,-0.008C0.277,0.005 0.243,0.011 0.207,0.011C0.184,0.011 0.162,0.008 0.141,0.003C0.12,-0.002 0.101,-0.011 0.086,-0.022C0.071,-0.033 0.058,-0.048 0.05,-0.067C0.041,-0.085 0.036,-0.107 0.036,-0.133C0.036,-0.162 0.041,-0.186 0.051,-0.205C0.061,-0.224 0.074,-0.239 0.091,-0.251C0.107,-0.262 0.126,-0.271 0.147,-0.277C0.167,-0.283 0.189,-0.288 0.211,-0.292C0.234,-0.297 0.257,-0.3 0.278,-0.303C0.299,-0.305 0.317,-0.308 0.333,-0.313C0.349,-0.317 0.362,-0.323 0.371,-0.332C0.38,-0.34 0.385,-0.352 0.385,-0.368C0.385,-0.387 0.382,-0.402 0.375,-0.413C0.368,-0.424 0.359,-0.433 0.348,-0.439C0.337,-0.445 0.324,-0.449 0.311,-0.451C0.297,-0.453 0.283,-0.454 0.27,-0.454C0.234,-0.454 0.204,-0.447 0.18,-0.434C0.156,-0.42 0.143,-0.394 0.141,-0.356L0.056,-0.356C0.057,-0.388 0.064,-0.415 0.076,-0.437C0.088,-0.459 0.104,-0.477 0.124,-0.491C0.144,-0.504 0.167,-0.514 0.193,-0.52C0.218,-0.526 0.246,-0.529 0.275,-0.529C0.298,-0.529 0.322,-0.527 0.345,-0.524C0.368,-0.521 0.388,-0.514 0.407,-0.504C0.426,-0.493 0.441,-0.479 0.452,-0.46C0.463,-0.441 0.469,-0.417 0.469,-0.387L0.469,-0.121C0.469,-0.101 0.47,-0.086 0.473,-0.077C0.475,-0.068 0.483,-0.063 0.496,-0.063C0.503,-0.063 0.512,-0.065 0.522,-0.068L0.522,-0.002ZM0.384,-0.267C0.373,-0.259 0.359,-0.253 0.342,-0.25C0.325,-0.246 0.307,-0.243 0.288,-0.241C0.269,-0.238 0.249,-0.236 0.23,-0.233C0.211,-0.23 0.193,-0.225 0.178,-0.218C0.163,-0.211 0.15,-0.202 0.141,-0.19C0.131,-0.177 0.126,-0.16 0.126,-0.139C0.126,-0.125 0.129,-0.113 0.135,-0.104C0.14,-0.094 0.148,-0.086 0.157,-0.08C0.166,-0.074 0.176,-0.07 0.188,-0.067C0.2,-0.064 0.213,-0.063 0.226,-0.063C0.254,-0.063 0.278,-0.067 0.298,-0.075C0.318,-0.082 0.334,-0.092 0.347,-0.104C0.36,-0.115 0.369,-0.128 0.375,-0.142C0.381,-0.155 0.384,-0.168 0.384,-0.18L0.384,-0.267Z" style="fill-rule:nonzero;"/>
        </g>
    </g>
    <g transform="matrix(1.76185,0,0,1.74081,-542.651,-412.573)">
        <path d="M603,754L308,237L898,237L761.837,475.631L780.705,442.565C780.977,436.695 781.612,430.939 782.61,425.296C783.983,417.531 786.215,410.629 789.305,404.59C792.395,398.55 796.515,393.697 801.665,390.031C805.103,387.582 809.039,385.952 813.472,385.138L827.162,361.146C823.981,360.559 820.975,360.266 818.144,360.266C808.016,360.266 799.133,362.584 791.494,367.222C783.855,371.859 777.503,378.114 772.439,385.987C767.375,393.859 763.599,403.08 761.11,413.649C758.62,424.218 757.376,435.433 757.376,447.296C757.376,458.03 758.43,468.234 760.538,477.908L603,754ZM727,523.968L480,523.968L534.785,406.032L672.215,406.032L727,523.968ZM603,245L664.743,383L541.257,383L603,245Z"/>
    </g>
    <g transform="matrix(1.76185,0,0,1.74081,-542.651,-412.573)">
        <path d="M826.877,361.094C827.646,361.231 828.426,361.387 829.216,361.56C833.165,362.422 837.113,363.878 841.061,365.927C845.009,367.976 848.743,370.673 852.262,374.016C855.781,377.359 858.742,381.511 861.146,386.472L861.661,386.472L861.661,364.148L883.547,364.148L883.547,595.152L861.661,595.152L861.661,508.768L861.146,508.768C857.541,518.043 851.876,524.729 844.151,528.827C836.426,532.925 827.929,534.974 818.659,534.974C808.359,534.974 799.39,532.602 791.751,527.857C784.112,523.111 777.761,516.749 772.697,508.768C767.633,500.788 763.813,491.513 761.238,480.944C760.925,479.657 760.63,478.36 760.355,477.055C760.415,477.339 760.476,477.624 760.538,477.908L780.705,442.565C780.602,444.774 780.55,446.998 780.55,449.238C780.55,457.002 781.366,464.606 782.996,472.047C784.627,479.488 787.116,486.121 790.464,491.944C793.811,497.768 798.103,502.405 803.338,505.856C808.574,509.307 814.711,511.033 821.749,511.033C829.131,511.033 835.396,509.199 840.546,505.533C845.696,501.866 849.902,497.067 853.163,491.135C856.425,485.204 858.785,478.464 860.244,470.914C861.703,463.365 862.433,455.708 862.433,447.943C862.433,439.747 861.661,431.821 860.116,424.164C858.571,416.507 856.124,409.766 852.777,403.943C849.43,398.119 845.095,393.428 839.774,389.869C834.452,386.31 828.015,384.531 820.462,384.531C818.04,384.531 815.738,384.728 813.556,385.123L813.472,385.138L827.162,361.146L826.877,361.094ZM760.278,476.685L760.343,476.996L760.333,476.95L760.278,476.685ZM760.184,476.229L760.243,476.517L760.228,476.447L760.184,476.229ZM760.089,475.758L760.145,476.036L760.126,475.943L760.089,475.758ZM759.994,475.282L760.048,475.555L760.025,475.437L759.994,475.282ZM759.901,474.803L759.954,475.073L759.926,474.931L759.901,474.803ZM759.81,474.322L759.861,474.59L759.829,474.424L759.81,474.322ZM759.719,473.84L759.769,474.107L759.733,473.915L759.719,473.84ZM759.631,473.356L759.68,473.623L759.64,473.406L759.631,473.356ZM759.544,472.873L759.592,473.141L759.548,472.896L759.48,472.504L759.544,472.873ZM759.42,472.156L759.463,472.41L759.459,472.385L759.42,472.156ZM759.337,471.671L759.38,471.922L759.371,471.873L759.337,471.671ZM759.256,471.182L759.297,471.432L759.285,471.36L759.256,471.182ZM759.177,470.693L759.217,470.942L759.201,470.846L759.177,470.693ZM759.099,470.203L759.138,470.45L759.119,470.331L759.099,470.203ZM759.023,469.711L759.061,469.956L759.039,469.816L759.023,469.711ZM758.949,469.219L758.986,469.461L758.961,469.299L758.949,469.219ZM758.877,468.726L758.911,468.961L758.885,468.781L758.877,468.726ZM758.806,468.232L758.837,468.452L758.81,468.263L758.806,468.232ZM758.738,467.744L758.756,467.876L758.738,467.743L758.719,467.608L758.738,467.744ZM758.643,467.041L758.671,467.253L758.667,467.222L758.643,467.041ZM758.576,466.53L758.605,466.755L758.598,466.701L758.576,466.53ZM758.512,466.025L758.541,466.256L758.531,466.179L758.512,466.025ZM758.45,465.523L758.478,465.755L758.466,465.655L758.45,465.523ZM758.39,465.021L758.417,465.253L758.403,465.131L758.39,465.021ZM758.332,464.519L758.358,464.748L758.341,464.606L758.332,464.519ZM758.275,464.016L758.3,464.238L758.282,464.079L758.275,464.016ZM758.22,463.513L758.243,463.72L758.225,463.552L758.22,463.513ZM758.167,463.009L758.184,463.168L758.169,463.024L758.167,463.009ZM758.101,462.354L758.117,462.51L758.115,462.495L758.101,462.354ZM758.048,461.801L758.067,462.004L758.063,461.965L758.048,461.801ZM757.999,461.279L758.019,461.496L758.013,461.434L757.999,461.279ZM757.953,460.764L757.973,460.987L757.965,460.902L757.953,460.764ZM757.909,460.252L757.928,460.477L757.919,460.369L757.909,460.252ZM757.867,459.74L757.885,459.964L757.875,459.835L757.867,459.74ZM757.827,459.228L757.844,459.447L757.832,459.301L757.827,459.228ZM757.788,458.716L757.804,458.923L757.792,458.765L757.788,458.716ZM757.751,458.203L757.764,458.38L757.753,458.228L757.751,458.203ZM757.715,457.669L757.717,457.705L757.715,457.669ZM757.672,457.002L757.683,457.178L757.681,457.152L757.672,457.002ZM757.639,456.456L757.651,456.662L757.648,456.613L757.639,456.456ZM757.609,455.927L757.621,456.145L757.617,456.072L757.609,455.927ZM757.582,455.404L757.593,455.626L757.588,455.531L757.582,455.404ZM757.556,454.882L757.567,455.106L757.561,454.989L757.556,454.882ZM757.532,454.361L757.542,454.582L757.535,454.445L757.532,454.361ZM757.509,453.84L757.518,454.053L757.512,453.901L757.509,453.84ZM757.489,453.319L757.496,453.513L757.49,453.356L757.489,453.319ZM757.47,452.797L757.474,452.928L757.47,452.81L757.47,452.797ZM757.449,452.144L757.453,452.275L757.452,452.263L757.449,452.144ZM757.432,451.557L757.437,451.752L757.436,451.715L757.432,451.557ZM757.419,451.013L757.424,451.227L757.422,451.166L757.419,451.013ZM757.407,450.478L757.412,450.701L757.41,450.616L757.407,450.478ZM757.398,449.947L757.401,450.172L757.399,450.065L757.398,449.947ZM757.39,449.417L757.393,449.642L757.391,449.513L757.39,449.417ZM757.384,448.887L757.386,449.107L757.384,448.96L757.384,448.887ZM757.379,448.357L757.381,448.565L757.38,448.407L757.379,448.357ZM757.377,447.827L757.378,448.002L757.377,447.852L757.377,447.827ZM757.39,445.08L757.384,445.632L757.39,445.08L757.393,444.883L757.39,445.08ZM780.736,441.924L780.728,442.089L780.731,442.015L780.736,441.924ZM780.762,441.421L780.76,441.47L780.762,441.421ZM780.829,440.292L780.813,440.547L780.824,440.369L780.829,440.292ZM780.873,439.62L780.853,439.918L780.859,439.822L780.873,439.62ZM780.938,438.7L780.897,439.256L780.935,438.729L780.938,438.7ZM780.989,438.03L780.961,438.391L780.977,438.184L780.989,438.03ZM757.693,437.095C757.672,437.426 757.652,437.756 757.633,438.088C757.652,437.756 757.672,437.426 757.693,437.095ZM781.051,437.278L781.013,437.729L781.02,437.639L781.051,437.278ZM781.122,436.463L781.077,436.967L781.114,436.552L781.122,436.463ZM781.187,435.772L781.146,436.202L781.164,436.009L781.187,435.772ZM781.273,434.905L781.21,435.534C781.23,435.324 781.251,435.115 781.273,434.905ZM757.876,434.529C757.851,434.846 757.827,435.163 757.803,435.48C757.827,435.162 757.851,434.845 757.876,434.529ZM781.343,434.236L781.291,434.729L781.327,434.385L781.343,434.236ZM781.423,433.507L781.368,434.006L781.385,433.845L781.423,433.507ZM781.517,432.698L781.442,433.341C781.466,433.127 781.491,432.912 781.517,432.698ZM781.6,432.019L781.54,432.51L781.573,432.229L781.6,432.019ZM758.196,431.041C758.16,431.393 758.125,431.745 758.091,432.098L758.142,431.569C758.16,431.392 758.178,431.216 758.196,431.041ZM781.705,431.189L781.625,431.814L781.64,431.692L781.705,431.189ZM781.797,430.501L781.71,431.155L781.781,430.619L781.797,430.501ZM781.894,429.805L781.824,430.307L781.854,430.084L781.894,429.805ZM782.013,428.979L781.918,429.63C781.949,429.413 781.981,429.196 782.013,428.979ZM782.113,428.315L782.031,428.858L782.087,428.482L782.113,428.315ZM782.227,427.58L782.143,428.12L782.169,427.949L782.227,427.58ZM758.834,425.812C758.73,426.552 758.631,427.296 758.539,428.042C758.653,427.121 758.777,426.206 758.908,425.294L758.834,425.812ZM782.352,426.807L782.247,427.457C782.281,427.241 782.316,427.024 782.352,426.807ZM782.465,426.135L782.38,426.641L782.427,426.355L782.465,426.135ZM783.052,422.971C782.896,423.738 782.749,424.513 782.61,425.296L782.497,425.948C782.534,425.731 782.572,425.513 782.61,425.296C782.749,424.513 782.896,423.738 783.052,422.971ZM783.394,421.369C783.306,421.762 783.221,422.158 783.138,422.557C783.246,422.04 783.358,421.527 783.473,421.019L783.394,421.369ZM759.358,422.4C759.397,422.165 759.436,421.931 759.476,421.697L759.389,422.208L759.358,422.4ZM785.596,413.442C785.265,414.423 784.952,415.421 784.657,416.438C784.952,415.421 785.265,414.422 785.596,413.442ZM761.716,411.196C761.506,412.006 761.304,412.823 761.11,413.649C761.053,413.889 760.997,414.129 760.942,414.37C760.997,414.129 761.053,413.889 761.11,413.649C761.304,412.823 761.506,412.006 761.716,411.196ZM785.964,412.377C785.873,412.635 785.782,412.894 785.694,413.154C785.819,412.788 785.947,412.424 786.077,412.062L785.964,412.377ZM763.976,403.681C763.654,404.614 763.345,405.56 763.047,406.52C763.345,405.561 763.654,404.614 763.976,403.681ZM788.945,405.306C789.016,405.161 789.088,405.017 789.161,404.874L789.018,405.159L788.945,405.306ZM791.985,400.028C791.372,400.94 790.789,401.885 790.234,402.864C790.737,401.976 791.264,401.116 791.816,400.283L791.985,400.028ZM765.459,399.675C765.378,399.877 765.299,400.079 765.22,400.283C765.356,399.933 765.494,399.586 765.633,399.24L765.459,399.675ZM766.905,396.249C766.811,396.458 766.718,396.668 766.626,396.879C766.78,396.527 766.936,396.177 767.094,395.829L766.905,396.249ZM796.807,394.145C796.398,394.554 795.998,394.974 795.606,395.404C795.998,394.974 796.398,394.554 796.807,394.145ZM797.35,393.61C797.262,393.696 797.173,393.781 797.086,393.868L797.138,393.816L797.35,393.61ZM798.503,392.545C798.627,392.436 798.751,392.327 798.877,392.218L798.654,392.412L798.503,392.545ZM800.947,390.554C800.491,390.895 800.043,391.246 799.604,391.606C800.12,391.183 800.647,390.774 801.185,390.378L800.947,390.554ZM770.719,388.798C770.416,389.318 770.119,389.844 769.826,390.377C770.118,389.845 770.416,389.318 770.719,388.798ZM802.149,389.693L801.934,389.841L801.988,389.804L802.149,389.693ZM802.369,389.545L802.151,389.692C802.223,389.643 802.296,389.594 802.369,389.545ZM802.64,389.367L802.424,389.509L802.48,389.472L802.64,389.367ZM802.865,389.222L802.644,389.364C802.717,389.317 802.791,389.269 802.865,389.222ZM803.138,389.051L802.92,389.187L802.977,389.151L803.138,389.051ZM803.367,388.91L803.143,389.047C803.218,389.001 803.292,388.956 803.367,388.91ZM803.642,388.745L803.423,388.876L803.482,388.841L803.642,388.745ZM803.876,388.609L803.65,388.741C803.725,388.696 803.8,388.652 803.876,388.609ZM804.152,388.451L803.933,388.576L803.993,388.541L804.152,388.451ZM804.391,388.318L804.162,388.445C804.238,388.403 804.314,388.36 804.391,388.318ZM804.669,388.167L804.449,388.286L804.51,388.253L804.669,388.167ZM804.912,388.038L804.681,388.16C804.758,388.119 804.835,388.079 804.912,388.038ZM771.095,388.159C771.231,387.931 771.367,387.704 771.505,387.478L771.276,387.856L771.095,388.159ZM805.192,387.894L804.972,388.007L805.034,387.975L805.192,387.894ZM805.44,387.769L805.207,387.886C805.285,387.847 805.362,387.808 805.44,387.769ZM805.721,387.632L805.502,387.739L805.565,387.708L805.721,387.632ZM805.975,387.511L805.74,387.623C805.818,387.585 805.896,387.548 805.975,387.511ZM806.257,387.38L806.038,387.481L806.102,387.452L806.257,387.38ZM806.515,387.264L806.279,387.37C806.358,387.334 806.436,387.299 806.515,387.264ZM806.798,387.14L806.581,387.234L806.645,387.206L806.798,387.14ZM807.062,387.027L806.825,387.128C806.904,387.094 806.983,387.06 807.062,387.027ZM807.345,386.91L807.131,386.998L807.196,386.971L807.345,386.91ZM807.615,386.801L807.378,386.897C807.457,386.865 807.536,386.833 807.615,386.801ZM807.897,386.691L807.689,386.773L807.752,386.747L807.897,386.691ZM808.175,386.586L807.937,386.676C808.016,386.646 808.095,386.616 808.175,386.586ZM808.455,386.484L808.253,386.558L808.316,386.534L808.455,386.484ZM808.74,386.382L808.504,386.466C808.582,386.438 808.661,386.41 808.74,386.382ZM809.019,386.287L808.824,386.353L808.886,386.332L809.019,386.287ZM809.311,386.189L809.077,386.267L809.269,386.203L809.311,386.189ZM809.587,386.1L809.403,386.16L809.462,386.14L809.587,386.1ZM809.889,386.007L809.667,386.075L809.85,386.019L809.889,386.007ZM810.161,385.925L809.988,385.977L810.045,385.959L810.161,385.925ZM810.472,385.835L810.268,385.894L810.437,385.845L810.472,385.835ZM810.74,385.76L810.582,385.804L810.634,385.789L810.74,385.76ZM811.061,385.674L810.88,385.722L811.031,385.682L811.061,385.674ZM811.323,385.607L811.183,385.642L811.231,385.63L811.323,385.607ZM811.655,385.524L811.505,385.561L811.632,385.53L811.655,385.524ZM811.911,385.463L811.792,385.491L811.833,385.482L811.911,385.463ZM812.256,385.385L812.144,385.41L812.239,385.389L812.256,385.385ZM812.504,385.331L812.41,385.351L812.442,385.344L812.504,385.331ZM812.861,385.256L812.8,385.269L812.852,385.258L812.861,385.256ZM813.1,385.209L813.035,385.222L813.058,385.217L813.1,385.209ZM773.16,384.89L773.141,384.919L773.16,384.89ZM778.963,377.501C778.326,378.195 777.702,378.907 777.093,379.637C777.702,378.907 778.326,378.196 778.963,377.501ZM781.426,374.977C781.183,375.211 780.943,375.447 780.704,375.685L781.001,375.391C781.1,375.293 781.2,375.196 781.3,375.099L781.426,374.977ZM782.513,373.954C782.262,374.184 782.013,374.417 781.765,374.652C782.113,374.322 782.465,373.996 782.821,373.674L782.513,373.954ZM785.567,371.348C785.213,371.629 784.863,371.915 784.517,372.203C784.863,371.914 785.214,371.629 785.567,371.348ZM786.665,370.497C786.444,370.664 786.224,370.833 786.006,371.003L785.679,371.259C786.114,370.916 786.553,370.578 786.998,370.248L786.665,370.497ZM793.41,366.121C792.763,366.472 792.124,366.839 791.494,367.222C791.296,367.342 791.099,367.463 790.903,367.585C791.099,367.463 791.296,367.342 791.494,367.222C792.124,366.839 792.763,366.472 793.41,366.121ZM801.42,362.718C799.744,363.251 798.116,363.871 796.534,364.579C798.244,363.815 800.008,363.152 801.826,362.59L801.42,362.718ZM803.47,362.115C803.194,362.19 802.919,362.267 802.645,362.346C803.055,362.227 803.469,362.113 803.886,362.005L803.47,362.115ZM826.662,361.055L826.848,361.089L826.568,361.039L826.662,361.055ZM825.946,360.934C826.065,360.954 826.184,360.974 826.304,360.993L826.272,360.988C826.174,360.972 826.076,360.956 825.978,360.939L825.946,360.934ZM810.013,360.8C809.678,360.845 809.346,360.894 809.014,360.945L808.576,361.014C809.052,360.937 809.531,360.865 810.013,360.8ZM825.59,360.877L825.669,360.89L825.452,360.856L825.59,360.877ZM825.236,360.823L825.345,360.839L825.142,360.809L825.236,360.823ZM824.883,360.771L825.022,360.791L824.827,360.763L824.883,360.771ZM824.532,360.722L824.702,360.746L824.52,360.72L824.373,360.7L824.532,360.722ZM824.182,360.675L824.22,360.68L824.058,360.659L824.182,360.675ZM823.834,360.631L823.899,360.639L823.741,360.62L823.834,360.631ZM811.676,360.598L811.577,360.609L811.676,360.598L811.898,360.576L811.676,360.598ZM823.487,360.589L823.576,360.6L823.424,360.582L823.487,360.589ZM823.142,360.55L823.246,360.562L823.109,360.546L823.142,360.55ZM822.798,360.513L822.843,360.518L822.804,360.514L822.725,360.506L822.798,360.513ZM822.456,360.479L822.491,360.483L822.367,360.471L822.456,360.479ZM822.115,360.447L822.175,360.453L822.046,360.442L822.115,360.447ZM821.776,360.418L821.854,360.425L821.731,360.415L821.776,360.418ZM821.438,360.392L821.515,360.398L821.42,360.391L821.438,360.392ZM816.26,360.293C815.665,360.31 815.075,360.335 814.49,360.369C815.229,360.327 815.975,360.297 816.728,360.281L816.26,360.293ZM821.102,360.368L821.114,360.369L821.038,360.364L821.102,360.368ZM820.767,360.346L820.805,360.349L820.694,360.342L820.767,360.346ZM820.434,360.327L820.493,360.331L820.378,360.325L820.434,360.327ZM820.103,360.311L820.175,360.315L820.069,360.31L820.103,360.311ZM819.772,360.297L819.822,360.299L819.764,360.297L819.772,360.297ZM819.444,360.286L819.462,360.286L819.376,360.284L819.444,360.286ZM819.117,360.277L819.159,360.278L819.05,360.276L819.117,360.277ZM818.791,360.271L818.853,360.272L818.743,360.27L818.791,360.271ZM818.467,360.267L818.537,360.268L818.442,360.267L818.467,360.267ZM758.354,429.592C758.319,429.899 758.285,430.206 758.252,430.514L758.309,429.987L758.354,429.592ZM783.717,419.979C783.939,419.058 784.175,418.151 784.423,417.259L784.331,417.594C784.085,418.491 783.853,419.401 783.635,420.324L783.717,419.979ZM786.306,411.435C786.517,410.867 786.735,410.304 786.959,409.749C786.694,410.406 786.438,411.073 786.191,411.748L786.306,411.435ZM761.981,410.197C761.935,410.368 761.889,410.54 761.844,410.712L761.972,410.229L761.981,410.197ZM789.451,404.308C789.548,404.12 789.646,403.934 789.746,403.748L789.598,404.027C789.499,404.213 789.402,404.401 789.305,404.59L789.451,404.308ZM764.292,402.777C764.371,402.555 764.451,402.333 764.531,402.112C764.397,402.482 764.264,402.854 764.133,403.228L764.292,402.777ZM792.329,399.525C793.139,398.358 793.998,397.247 794.906,396.194L795.102,395.969C794.056,397.164 793.074,398.432 792.157,399.776L792.329,399.525ZM767.478,394.997C767.672,394.582 767.869,394.171 768.069,393.762C767.803,394.307 767.542,394.857 767.285,395.412L767.478,394.997ZM768.472,392.949C768.728,392.441 768.988,391.937 769.253,391.438C768.918,392.069 768.59,392.709 768.269,393.355L768.472,392.949ZM797.779,393.204C797.707,393.271 797.635,393.338 797.564,393.406L797.779,393.204C797.851,393.137 797.923,393.07 797.995,393.003L797.779,393.204ZM801.88,389.879L801.665,390.031L801.826,389.917L801.88,389.879ZM787.669,369.756C787.894,369.594 788.12,369.433 788.347,369.274L788.007,369.514C787.781,369.674 787.557,369.836 787.333,370.001L787.669,369.756Z" style="fill-rule:nonzero;"/>
    </g>
</svg>
